<?xml version="1.0" standalone="no"?>
<!DOCTYPE svg PUBLIC "-//W3C//DTD SVG 20010904//EN"
 "http://www.w3.org/TR/2001/REC-SVG-20010904/DTD/svg10.dtd">
<svg version="1.0" xmlns="http://www.w3.org/2000/svg"
 width="500.000000pt" height="500.000000pt" viewBox="0 0 500.000000 500.000000"
 preserveAspectRatio="xMidYMid meet">

<g transform="translate(0.000000,500.000000) scale(0.100000,-0.100000)"
fill="#000000" stroke="none">
<path d="M945 4893 c-201 -24 -347 -60 -460 -112 -205 -96 -314 -240 -318
-419 -2 -63 1 -76 18 -88 28 -21 80 -33 171 -40 110 -9 152 0 160 32 12 48 -7
68 -85 88 -164 43 -142 93 65 146 198 51 626 42 984 -20 357 -63 829 -231
1197 -428 946 -505 1558 -1189 1689 -1887 26 -138 27 -434 1 -552 -43 -196
-150 -389 -288 -518 -190 -178 -491 -306 -849 -362 -167 -26 -597 -26 -689 0
-73 21 -131 48 -178 84 l-33 24 0 644 0 644 43 12 c102 28 394 -12 647 -87
136 -41 343 -139 384 -183 36 -37 32 -49 -46 -141 -29 -34 -70 -84 -90 -111
l-38 -48 28 -19 c41 -29 121 -54 177 -55 86 -1 155 49 244 177 59 86 83 156
82 246 -1 351 -370 592 -1031 675 -69 8 -182 18 -252 22 -121 6 -128 7 -128
27 0 32 -29 464 -36 531 -15 161 -78 326 -158 420 -34 39 -35 40 -50 20 -59
-76 -132 -517 -152 -906 l-7 -137 -146 -37 c-409 -105 -641 -217 -837 -407
-110 -107 -139 -165 -138 -273 1 -100 26 -180 98 -305 164 -287 426 -558 861
-891 103 -80 110 -87 118 -129 38 -212 60 -306 82 -357 26 -59 28 -61 72 -67
68 -9 126 -7 182 6 57 13 53 4 86 163 10 44 21 84 25 88 4 5 104 -8 221 -27
265 -45 422 -57 599 -45 467 32 857 186 1167 459 231 204 398 490 464 798 27
125 37 409 20 547 -52 410 -278 865 -642 1290 -103 121 -377 388 -519 506
-391 325 -806 578 -1203 733 -352 138 -678 228 -947 262 -103 13 -478 18 -565
7z m985 -2785 c0 -89 -42 -1124 -46 -1128 -9 -8 -137 42 -232 90 -142 74 -217
128 -351 254 -284 267 -384 414 -356 523 17 70 145 142 337 189 107 27 525 91
601 93 42 1 47 -1 47 -21z"/>
</g>
</svg>
